<?xml version="1.0" encoding="utf-8"?>
<!-- Generator: Adobe Illustrator 22.0.1, SVG Export Plug-In . SVG Version: 6.00 Build 0)  -->
<svg version="1.1" id="Layer_1" xmlns="http://www.w3.org/2000/svg" xmlns:xlink="http://www.w3.org/1999/xlink" x="0px" y="0px"
	 viewBox="0 0 240 240" style="enable-background:new 0 0 240 240;" xml:space="preserve">
<style type="text/css">
	.st0{fill:#B58574;}
	.st1{fill:#A92D2D;}
	.st2{fill:#FFFFFF;stroke:#000000;stroke-miterlimit:10;}
	.st3{display:none;fill:#FFFFFF;stroke:#000000;stroke-width:2;stroke-miterlimit:10;}
	.st4{fill:#E55353;}
	.st5{fill:#F7CCAD;}
	.st6{fill:none;stroke:#FFFFFF;stroke-width:3;stroke-miterlimit:10;}
	.st7{fill:#FFFFFF;}
	.st8{fill:#3A3A38;}
	.st9{fill:#424C4A;stroke:#424C4A;stroke-width:2;stroke-miterlimit:10;}
</style>
<path class="st0" d="M201.7,192.5c0,15-12.2,27.1-27.1,27.1c-12.5,0-23-8.5-26.2-20c9.8-1.2,19.1-2.9,27.7-5
	c9.2-2.3,17.6-5.1,24.9-8.3C201.5,188.4,201.7,190.4,201.7,192.5z"/>
<path class="st1" d="M237.9,155.7c0,2.1-0.3,4.2-0.9,6.2c-3.1,10.8-14.3,20.5-31,28c-0.6,0.3-1.2,0.5-1.8,0.8
	c-7.4,3.2-15.8,6-24.9,8.3c-8.6,2.1-17.9,3.8-27.7,5c-10.3,1.2-21.1,1.9-32.4,1.9c-16.7,0-32.6-1.4-47-4.1c-4.5-0.8-8.9-1.7-13-2.8
	c-9.6-2.4-18.3-5.3-26-8.7c-0.3-0.1-0.5-0.2-0.8-0.4c-16.3-7.4-27.3-16.8-30.7-27.3c-0.7-2.3-1.1-4.6-1.1-6.9
	c0-23.6,38.8-43.5,90.9-48.8c8.9-0.9,18.2-1.4,27.7-1.4s18.8,0.5,27.7,1.4C199.1,112.2,237.9,132.1,237.9,155.7z"/>
<path class="st2" d="M40.4,86.1"/>
<path class="st3" d="M130.1,131.1c-1.2-1.4-4-1.8-6.8-0.9c-3.4,1.1-5.7,3.6-5,5.7c0,0,0,0.1,0,0.1
	C122.1,137,126.4,134.4,130.1,131.1z"/>
<g>
	<path class="st4" d="M237.3,146.5c0,16.7-23.5,31.3-58.6,39.2c-17.6,4-38.1,6.3-60.1,6.3s-42.4-2.3-60.1-6.3
		C23.5,177.8,0,163.2,0,146.5C0,125,38.8,107,90.9,102.2c8.9-0.8,18.2-1.3,27.7-1.3s18.8,0.4,27.7,1.3
		C198.6,107,237.3,125,237.3,146.5z"/>
	<g>
		<ellipse class="st1" cx="26.6" cy="143" rx="7.5" ry="4.8"/>
		<ellipse class="st1" cx="212.9" cy="143" rx="7.5" ry="4.8"/>
		<ellipse class="st1" cx="60.7" cy="170.2" rx="7.5" ry="5.3"/>
		<ellipse class="st1" cx="176.7" cy="170.2" rx="7.5" ry="5.3"/>
		<ellipse class="st1" cx="118.1" cy="177.9" rx="8.5" ry="6.1"/>
	</g>
</g>
<path class="st2" d="M64.9,89.3"/>
<path class="st0" d="M32.4,189.9c-2.9,1.4-6.1,2.1-9.5,2.1c-12.3,0-22.4-10-22.4-22.4c0-2.5,0.4-4.8,1.1-7
	C5.1,173.1,16.1,182.5,32.4,189.9z"/>
<path class="st0" d="M240,172.8c0,11.8-9.5,21.3-21.3,21.3c-4.8,0-9.2-1.6-12.7-4.2c16.6-7.5,27.9-17.2,31-28
	C238.9,165.1,240,168.8,240,172.8z"/>
<g>
	<g>
		<path class="st5" d="M202.9,105c0,15.6-4.2,30.2-11.6,42.7c-10.5,2.8-21.9,5.1-33.9,6.6c-12.2,1.6-25.1,2.4-38.4,2.4
			c-10.6,0-20.9-0.5-30.8-1.5c-14.9-1.5-28.9-4-41.6-7.4c-7.4-12.5-11.6-27.1-11.6-42.7c0-34.5,20.8-64.2,50.6-77.1
			C95.7,23.5,107,21,118.9,21s23.2,2.5,33.4,6.9C182.1,40.8,202.9,70.5,202.9,105z"/>
		<g>
			<path class="st6" d="M55.4,73.6c0,0,7.7-24.4,37.2-33.4"/>
			<circle class="st7" cx="53.8" cy="78.4" r="2.2"/>
		</g>
	</g>
	<g>
		<path class="st0" d="M157.3,93.8v60.5c-12.2,1.6-25.1,2.4-38.4,2.4c-10.6,0-20.9-0.5-30.8-1.5c0-0.3,0-0.5,0-0.8V93.8
			c0-19,15.6-34.6,34.6-34.6c9.5,0,18.2,3.9,24.5,10.2C153.4,75.6,157.3,84.3,157.3,93.8z"/>
		<path class="st7" d="M125.5,84l-22.7,4.9c-1.1,2.1-1.8,4.5-1.8,7.1c0,8.4,6.8,15.2,15.1,15.2s15.2-6.8,15.2-15.2
			C131.4,91.1,129.1,86.8,125.5,84z"/>
		
			<rect x="101.8" y="78.5" transform="matrix(0.9783 -0.2072 0.2072 0.9783 -14.1058 25.7623)" class="st8" width="28.2" height="3.5"/>
		<path class="st9" d="M104.8,132l34.6-9C139.4,123,113.8,160.2,104.8,132z"/>
		<circle class="st9" cx="111.2" cy="98.6" r="2.6"/>
	</g>
</g>
</svg>
